<svg xmlns="http://www.w3.org/2000/svg" viewBox="0 0 256 256">
  <path fill="#1A6FD4" d="M223.68,66.15,135.68,18a15.88,15.88,0,0,0-15.36,0l-88,48.17a16,16,0,0,0-8.32,14v95.64a16,16,0,0,0,8.32,14l88,48.17a15.88,15.88,0,0,0,15.36,0l88-48.17a16,16,0,0,0,8.32-14V80.18A16,16,0,0,0,223.68,66.15Z"/>
  <path fill="#1A6FD4" d="M40,90l80,43.78v85.79L40,175.82Z"/>
  <path fill="#1A6FD4" d="M216,175.78l-80,43.79V133.82l32-17.51V152a8,8,0,0,0,16,0V107.55L216,90Z"/>
  <path fill="#F57C28" d="M128,32l80.34,44-29.77,16.3-80.35-44Z"/>
  <path fill="#F57C28" d="M128,120L47.66,76l33.9-18.56 80.34,44Z"/>
</svg>
